# xmcd
#
# Track frame offsets: 
#        150
#        18274
#        36860
#        57725
#        85149
#        104070
#        124064
#        138156
#        153355
#        171980
#        192072
#        217008
#        237821
#        255644
#        287811
#        312475
#
# Disc length: 4350 seconds
#
# Revision: 1
# Processed by: cddbd v1.5.2PL0 Copyright (c) Steve Scherf et al.
# Submitted via: ExactAudioCopyFreeDBPlugin 1.0
#
DISCID=e810fc10
DTITLE=群星 - TEST-CD试音极品03CDB
DYEAR=2010
DGENRE=stereo
TTITLE0=翠湖寒
TTITLE1=木村好夫之海峡
TTITLE2=传奇
TTITLE3=千古绝响之行云流水
TTITLE4=边疆的泉水清又纯
TTITLE5=彩云追月
TTITLE6=草原上升起不落的太阳
TTITLE7=孤独的牧羊人
TTITLE8=花间梦
TTITLE9=庸人自扰
TTITLE10=十面埋伏
TTITLE11=每一句说话
TTITLE12=三月里的小雨
TTITLE13=喜之郎之古事记
TTITLE14=睡美人小夜曲
TTITLE15=斯特劳斯圆舞曲
EXTD=
EXTT0=
EXTT1=
EXTT2=
EXTT3=
EXTT4=
EXTT5=
EXTT6=
EXTT7=
EXTT8=
EXTT9=
EXTT10=
EXTT11=
EXTT12=
EXTT13=
EXTT14=
EXTT15=
PLAYORDER=
